<?xml version="1.0" encoding="iso-8859-1"?>
<!-- Generator: Adobe Illustrator 19.0.0, SVG Export Plug-In . SVG Version: 6.00 Build 0)  -->
<svg version="1.1" id="Layer_1" xmlns="http://www.w3.org/2000/svg" xmlns:xlink="http://www.w3.org/1999/xlink" x="0px" y="0px"
	 viewBox="0 0 512 512" style="enable-background:new 0 0 512 512;" xml:space="preserve">
<path style="fill:#736056;" d="M322.783,410.44H189.217c-9.217,0-16.696,7.473-16.696,16.696v34.777
	c0,27.619,22.468,50.087,50.087,50.087h66.783c27.619,0,50.087-22.468,50.087-50.087v-34.777
	C339.478,417.913,332,410.44,322.783,410.44z"/>
<path style="fill:#665247;" d="M322.783,410.44H256V512h33.391c27.619,0,50.087-22.468,50.087-50.087v-34.777
	C339.478,417.913,332,410.44,322.783,410.44z"/>
<path style="fill:#736056;" d="M289.391,0h-66.783c-27.619,0-50.087,22.468-50.087,50.087v34.777
	c0,9.223,7.479,16.696,16.696,16.696h133.565c9.217,0,16.696-7.473,16.696-16.696V50.087C339.478,22.468,317.01,0,289.391,0z"/>
<path style="fill:#665247;" d="M289.391,0H256v101.56h66.783c9.217,0,16.696-7.473,16.696-16.696V50.087
	C339.478,22.468,317.01,0,289.391,0z"/>
<path style="fill:#E64B2D;" d="M306.087,66.783H205.913c-52.87,0-97.614,35.283-111.973,83.478
	c-3.227,10.574-4.896,21.816-4.896,33.391v144.696c0,11.576,1.67,22.817,4.896,33.391c14.359,48.195,59.104,83.478,111.973,83.478
	h100.174c64.445,0,116.87-52.424,116.87-116.87V183.652C422.957,119.207,370.532,66.783,306.087,66.783z"/>
<path style="fill:#CC4328;" d="M306.087,66.783H256v378.435h50.087c64.445,0,116.87-52.424,116.87-116.87V183.652
	C422.957,119.207,370.532,66.783,306.087,66.783z"/>
<path style="fill:#F25B3D;" d="M256,445.217c-36.826,0-66.783-29.956-66.783-66.783v-244.87c0-36.826,29.956-66.783,66.783-66.783
	s66.783,29.956,66.783,66.783v244.87C322.783,415.261,292.826,445.217,256,445.217z"/>
<g>
	<path style="fill:#B33B23;" d="M372.87,150.261h-50.087v33.391h50.087c9.217,0,16.696-7.473,16.696-16.696
		S382.087,150.261,372.87,150.261z"/>
	<path style="fill:#B33B23;" d="M372.87,239.304h-50.087v33.391h50.087c9.217,0,16.696-7.473,16.696-16.696
		S382.087,239.304,372.87,239.304z"/>
	<path style="fill:#B33B23;" d="M372.87,328.348h-50.087v33.391h50.087c9.217,0,16.696-7.473,16.696-16.696
		S382.087,328.348,372.87,328.348z"/>
</g>
<path style="fill:#E64B2D;" d="M322.783,378.435v-244.87c0-36.826-29.956-66.783-66.783-66.783v378.435
	C292.826,445.217,322.783,415.261,322.783,378.435z"/>
<g>
	<path style="fill:#BF3F25;" d="M155.826,166.957c0,9.238-7.456,16.696-16.696,16.696H89.043c0-11.576,1.67-22.817,4.896-33.391
		h45.191C148.37,150.261,155.826,157.718,155.826,166.957z"/>
	<path style="fill:#BF3F25;" d="M155.826,256c0,9.238-7.456,16.696-16.696,16.696H89.043v-33.391h50.087
		C148.37,239.304,155.826,246.762,155.826,256z"/>
	<path style="fill:#BF3F25;" d="M155.826,345.043c0,9.238-7.456,16.696-16.696,16.696H93.94
		c-3.227-10.574-4.896-21.816-4.896-33.391h50.087C148.37,328.348,155.826,335.805,155.826,345.043z"/>
</g>
<g>
	<path style="fill:#CC4328;" d="M239.304,150.261h-50.087v33.391h50.087c9.217,0,16.696-7.473,16.696-16.696
		S248.521,150.261,239.304,150.261z"/>
	<path style="fill:#CC4328;" d="M239.304,239.304h-50.087v33.391h50.087c9.217,0,16.696-7.473,16.696-16.696
		S248.521,239.304,239.304,239.304z"/>
	<path style="fill:#CC4328;" d="M239.304,328.348h-50.087v33.391h50.087c9.217,0,16.696-7.473,16.696-16.696
		S248.521,328.348,239.304,328.348z"/>
</g>
<g>
</g>
<g>
</g>
<g>
</g>
<g>
</g>
<g>
</g>
<g>
</g>
<g>
</g>
<g>
</g>
<g>
</g>
<g>
</g>
<g>
</g>
<g>
</g>
<g>
</g>
<g>
</g>
<g>
</g>
</svg>
