<svg height="512" viewBox="0 0 56 56" width="512" xmlns="http://www.w3.org/2000/svg"><g id="049---Scroll"><circle id="Oval" cx="1" cy="52" r="1"/><circle id="Oval" cx="1" cy="4" r="1"/><path id="Shape" d="m48 7v-6c0-.55228475-.4477153-1-1-1h-4v3c0 .55228475-.4477153 1-1 1s-1-.44771525-1-1v-3h-2v1c0 .55228475-.4477153 1-1 1s-1-.44771525-1-1v-1h-28c-.55228475 0-1 .44771525-1 1v7h39c.5522847 0 1-.44771525 1-1z"/><path id="Shape" d="m55 3c-.5522847 0-1 .44771525-1 1s.4477153 1 1 1 1-.44771525 1-1-.4477153-1-1-1z"/><path id="Shape" d="m4 55c0 .5522847.44771525 1 1 1s1-.4477153 1-1v-6c0-.5522847-.44771525-1-1-1s-1 .4477153-1 1z"/><path id="Shape" d="m8 49v6c0 .5522847.44771525 1 1 1h4v-3c0-.5522847.4477153-1 1-1s1 .4477153 1 1v3h2v-1c0-.5522847.4477153-1 1-1s1 .4477153 1 1v1h28c.5522847 0 1-.4477153 1-1v-6c0-.5522847-.4477153-1-1-1h-38c-.55228475 0-1 .4477153-1 1z"/><path id="Shape" d="m4 7c0 .55228475.44771525 1 1 1s1-.44771525 1-1v-6c0-.55228475-.44771525-1-1-1s-1 .44771525-1 1z"/><path id="Shape" d="m49.09 14.08-1.75-4.08h-36.73l1.25 2.56c1.4164211 3.2174153 1.491998 6.8667003.21 10.14-2.76 7.09-1.65 4.49-4.53 11.44-.69476794 2.1166316-.72616999 4.3950247-.09 6.53l2.22 5.33h36.9l-2-5.41c-.7931823-2.5824614-.7582145-5.3484159.1-7.91 1.6998321-3.2800445 3.2318093-6.6443867 4.59-10.08 1.1006882-2.7456119 1.0393352-5.8204802-.17-8.52zm-25.09 1.92h2c.5522847 0 1 .4477153 1 1s-.4477153 1-1 1h-2c-.5522847 0-1-.4477153-1-1s.4477153-1 1-1zm-1 5h16c.5522847 0 1 .4477153 1 1s-.4477153 1-1 1h-16c-.5522847 0-1-.4477153-1-1s.4477153-1 1-1zm8 7h-2c-.5522847 0-1-.4477153-1-1s.4477153-1 1-1h2c.5522847 0 1 .4477153 1 1s-.4477153 1-1 1zm8 7c.5522847 0 1 .4477153 1 1s-.4477153 1-1 1h-10c-.5522847 0-1-.4477153-1-1s.4477153-1 1-1zm-13-8c0 .5522847-.4477153 1-1 1h-4c-.5522847 0-1-.4477153-1-1s.4477153-1 1-1h4c.5522847 0 1 .4477153 1 1zm-8-11h2c.5522847 0 1 .4477153 1 1s-.4477153 1-1 1h-2c-.5522847 0-1-.4477153-1-1s.4477153-1 1-1zm-1 5h2c.5522847 0 1 .4477153 1 1s-.4477153 1-1 1h-2c-.5522847 0-1-.4477153-1-1s.4477153-1 1-1zm-2 5h2c.5522847 0 1 .4477153 1 1s-.4477153 1-1 1h-2c-.5522847 0-1-.4477153-1-1s.4477153-1 1-1zm-5 10c0-.5522847.4477153-1 1-1h8c.5522847 0 1 .4477153 1 1s-.4477153 1-1 1h-8c-.5522847 0-1-.4477153-1-1zm5 6h-2c-.5522847 0-1-.4477153-1-1s.4477153-1 1-1h2c.5522847 0 1 .4477153 1 1s-.4477153 1-1 1zm6 0h-2c-.5522847 0-1-.4477153-1-1s.4477153-1 1-1h2c.5522847 0 1 .4477153 1 1s-.4477153 1-1 1zm1-6c0-.5522847.4477153-1 1-1h2c.5522847 0 1 .4477153 1 1s-.4477153 1-1 1h-2c-.5522847 0-1-.4477153-1-1zm19 6h-16c-.5522847 0-1-.4477153-1-1s.4477153-1 1-1h16c.5522847 0 1 .4477153 1 1s-.4477153 1-1 1zm2-14h-8c-.5522847 0-1-.4477153-1-1s.4477153-1 1-1h8c.5522847 0 1 .4477153 1 1s-.4477153 1-1 1zm2-5h-2c-.5522847 0-1-.4477153-1-1s.4477153-1 1-1h2c.5522847 0 1 .4477153 1 1s-.4477153 1-1 1zm1-5h-16c-.5522847 0-1-.4477153-1-1s.4477153-1 1-1h16c.5522847 0 1 .4477153 1 1s-.4477153 1-1 1z"/><path id="Shape" d="m51 56c.5522847 0 1-.4477153 1-1v-6c0-.5522847-.4477153-1-1-1s-1 .4477153-1 1v6c0 .5522847.4477153 1 1 1z"/><path id="Shape" d="m54 52c0 .5522847.4477153 1 1 1s1-.4477153 1-1-.4477153-1-1-1-1 .4477153-1 1z"/><path id="Shape" d="m51 8c.5522847 0 1-.44771525 1-1v-6c0-.55228475-.4477153-1-1-1s-1 .44771525-1 1v6c0 .55228475.4477153 1 1 1z"/></g></svg>